# xmcd
#
# Track frame offsets: 
#        150
#        17887
#        37887
#        56907
#        77310
#        94517
#        111905
#        133055
#        154355
#        176385
#        196372
#
# Disc length: 2960 seconds
#
# Revision: 2
# Processed by: cddbd v1.5.2PL0 Copyright (c) Steve Scherf et al.
# Submitted via: ExactAudioCopyFreeDBPlugin 1.0
#
DISCID=880b8e0b
DTITLE=Ann Peebles - Full Time Lover
DYEAR=1992
DGENRE=Soul
TTITLE0=Bouncin' Jack
TTITLE1=St. Louis Woman (With a Memphis Melody)
TTITLE2=Read Me My Rights
TTITLE3=Full Time Lover
TTITLE4=Fear No Evil
TTITLE5=Nobody But You
TTITLE6=Ain't No Business Like Your Business
TTITLE7=I Miss You
TTITLE8=Just You Just Me
TTITLE9=He's My Superman
TTITLE10=I Can't Stand the Rain
EXTD=
EXTT0=
EXTT1=
EXTT2=
EXTT3=
EXTT4=
EXTT5=
EXTT6=
EXTT7=
EXTT8=
EXTT9=
EXTT10=
PLAYORDER=
